<svg id="svg" version="1.1" xmlns="http://www.w3.org/2000/svg" xmlns:xlink="http://www.w3.org/1999/xlink" width="400" height="251.11111111111111" viewBox="0, 0, 400,251.11111111111111"><g id="svgg"><path id="path0" d="M372.362 29.669 C 366.765 29.774,353.141 29.987,342.085 30.141 C 331.030 30.296,314.692 30.534,305.779 30.671 C 270.631 31.211,255.821 31.420,242.043 31.572 C 234.142 31.658,227.545 31.812,227.382 31.913 C 227.156 32.052,227.150 32.952,227.360 35.709 C 227.972 43.783,228.083 46.114,227.865 46.381 C 227.731 46.546,226.053 46.721,223.682 46.817 C 216.523 47.108,210.458 47.489,208.543 47.768 C 207.506 47.919,204.793 48.139,202.513 48.256 C 200.232 48.374,195.088 48.655,191.080 48.880 C 187.073 49.106,181.872 49.398,179.523 49.529 C 177.173 49.660,173.555 49.826,171.482 49.897 C 169.410 49.968,167.606 50.133,167.475 50.264 C 167.344 50.395,166.878 50.503,166.441 50.503 C 165.689 50.503,165.638 50.564,165.491 51.633 C 165.406 52.255,165.261 53.063,165.169 53.429 C 165.052 53.898,165.087 54.042,165.290 53.917 C 165.448 53.819,165.578 53.407,165.578 53.000 C 165.578 51.955,164.879 51.322,175.988 62.437 L 186.158 72.613 187.288 72.613 C 191.863 72.613,195.733 74.603,197.304 77.764 C 198.489 80.147,198.542 80.354,198.913 84.029 L 199.063 85.520 202.411 88.866 C 204.252 90.706,205.819 92.211,205.894 92.211 C 205.969 92.211,206.030 83.345,206.030 72.508 C 206.030 61.671,206.099 52.626,206.183 52.407 C 206.411 51.812,213.940 51.812,214.169 52.407 C 214.253 52.626,214.322 68.312,214.322 87.264 C 214.322 124.688,214.449 129.657,215.426 130.458 C 215.717 130.697,216.052 130.995,216.171 131.121 C 216.290 131.248,216.670 131.634,217.016 131.979 C 217.361 132.325,217.757 132.721,217.894 132.859 C 218.221 133.187,221.587 136.553,221.915 136.879 C 222.240 137.203,223.350 138.313,223.673 138.638 C 223.999 138.966,227.366 142.332,227.693 142.658 C 227.832 142.796,228.228 143.192,228.574 143.537 C 229.585 144.548,229.623 144.587,231.443 146.455 C 232.400 147.437,233.292 148.241,233.426 148.241 C 233.559 148.241,233.668 148.854,233.668 149.603 C 233.668 151.278,233.839 151.759,234.434 151.759 C 234.688 151.759,234.965 151.872,235.050 152.010 C 235.136 152.148,235.655 152.261,236.204 152.261 C 237.260 152.261,237.397 152.360,240.131 155.095 C 240.477 155.440,240.872 155.836,241.010 155.975 C 241.148 156.113,242.052 157.018,243.019 157.986 C 243.987 158.953,244.892 159.857,245.030 159.995 C 245.169 160.133,245.565 160.528,245.910 160.874 C 246.256 161.219,246.651 161.615,246.789 161.754 C 246.927 161.892,247.831 162.797,248.798 163.765 C 249.766 164.732,250.670 165.636,250.809 165.774 C 250.948 165.912,251.344 166.307,251.689 166.653 C 252.035 166.998,252.430 167.394,252.568 167.533 C 252.706 167.671,253.610 168.576,254.577 169.543 C 255.545 170.511,256.449 171.415,256.588 171.553 C 256.913 171.876,258.023 172.986,258.347 173.312 C 258.485 173.450,259.389 174.355,260.356 175.322 C 261.323 176.290,262.228 177.194,262.367 177.332 C 262.505 177.469,262.901 177.865,263.247 178.210 C 263.592 178.556,263.973 178.936,264.093 179.055 C 264.213 179.174,264.811 179.798,265.422 180.441 C 266.464 181.538,266.633 181.620,268.129 181.758 C 274.142 182.311,285.605 183.133,301.508 184.152 C 303.788 184.299,307.180 184.527,309.045 184.661 C 310.911 184.794,313.540 184.967,314.887 185.044 L 317.337 185.186 317.337 184.077 C 317.337 182.628,317.780 182.478,319.008 183.514 C 319.540 183.962,321.162 185.280,322.613 186.442 C 324.064 187.603,325.308 188.614,325.377 188.686 C 325.446 188.759,326.068 189.271,326.759 189.824 C 327.450 190.376,328.185 190.966,328.392 191.134 C 328.599 191.302,330.691 192.989,333.040 194.882 C 335.389 196.775,338.471 199.276,339.887 200.438 C 341.533 201.789,342.499 202.432,342.564 202.219 C 342.620 202.035,342.796 196.627,342.955 190.201 C 343.588 164.670,343.699 160.846,343.866 158.700 L 344.039 156.471 345.324 156.628 C 346.030 156.715,348.869 157.010,351.633 157.285 C 354.397 157.559,357.704 157.898,358.982 158.038 C 367.901 159.012,379.699 160.193,382.412 160.383 C 383.146 160.435,383.023 161.477,384.428 143.342 C 384.557 141.683,384.771 138.970,384.904 137.312 C 385.352 131.727,385.950 124.018,386.189 120.729 C 386.320 118.932,386.544 116.049,386.685 114.322 C 386.827 112.594,387.110 109.033,387.313 106.407 C 387.517 103.781,387.798 100.220,387.939 98.492 C 388.080 96.765,388.307 93.882,388.442 92.085 C 388.578 90.289,388.804 87.406,388.945 85.678 C 389.086 83.951,389.373 80.333,389.582 77.638 C 389.792 74.943,390.076 71.325,390.214 69.598 C 390.352 67.871,390.569 65.101,390.696 63.442 C 390.824 61.784,391.105 58.166,391.322 55.402 C 391.538 52.638,391.831 48.851,391.973 46.985 C 392.249 43.346,392.563 39.377,392.958 34.548 C 393.093 32.889,393.207 31.052,393.210 30.465 L 393.216 29.397 387.877 29.437 C 384.940 29.459,377.959 29.563,372.362 29.669 M263.125 63.505 L 263.191 73.995 267.085 74.121 L 270.980 74.246 270.980 77.387 L 270.980 80.528 267.018 80.597 L 263.056 80.666 263.127 105.722 C 263.204 132.625,263.166 131.848,264.508 133.443 C 265.443 134.554,266.617 134.994,269.095 135.159 L 271.231 135.302 271.302 138.131 L 271.373 140.961 270.721 141.209 C 269.752 141.577,265.301 141.510,263.740 141.103 C 259.948 140.115,257.661 138.002,256.104 134.045 L 255.411 132.286 255.345 107.035 C 255.269 77.932,255.454 80.701,253.579 80.603 L 252.136 80.528 252.065 77.324 L 251.995 74.121 253.483 74.121 C 255.419 74.121,255.276 74.989,255.276 63.170 L 255.276 53.015 259.168 53.015 L 263.060 53.015 263.125 63.505 M285.738 63.505 L 285.804 73.995 289.761 74.064 L 293.719 74.133 293.719 77.387 L 293.719 80.641 289.761 80.710 L 285.804 80.779 285.804 105.653 C 285.804 132.429,285.776 131.845,287.118 133.440 C 288.056 134.554,289.228 134.993,291.709 135.159 L 293.844 135.302 293.915 138.131 L 293.986 140.961 293.334 141.209 C 292.975 141.346,291.520 141.457,290.101 141.457 C 284.794 141.457,281.184 139.407,279.283 135.312 C 277.988 132.522,278.040 133.609,277.897 106.281 L 277.764 80.779 276.256 80.653 L 274.749 80.528 274.749 77.387 L 274.749 74.246 276.256 74.121 L 277.764 73.995 277.829 63.505 L 277.895 53.015 281.784 53.015 L 285.673 53.015 285.738 63.505 M239.415 73.740 C 242.961 75.029,244.785 76.812,246.171 80.343 L 246.835 82.035 246.924 95.038 L 247.014 108.040 238.519 108.044 C 233.848 108.046,229.878 108.141,229.698 108.256 C 229.093 108.639,229.675 130.524,230.320 131.658 C 231.910 134.456,236.664 134.851,238.527 132.340 C 239.563 130.946,239.698 129.674,239.698 121.371 L 239.698 113.568 243.358 113.568 L 247.018 113.568 246.920 123.053 C 246.840 130.886,246.753 132.740,246.423 133.698 C 245.137 137.432,243.028 139.629,239.573 140.832 C 237.448 141.571,230.365 142.013,229.786 141.442 C 229.655 141.312,229.288 141.206,228.970 141.206 C 228.652 141.206,228.392 141.093,228.392 140.955 C 228.392 140.817,228.166 140.704,227.889 140.704 C 227.613 140.704,227.387 140.590,227.387 140.452 C 227.387 140.314,227.186 140.201,226.940 140.201 C 226.695 140.201,226.315 140.003,226.097 139.761 C 225.879 139.519,225.486 139.140,225.224 138.918 C 224.652 138.432,223.869 137.488,223.869 137.285 C 223.869 137.204,223.657 136.838,223.398 136.471 C 223.139 136.104,222.834 135.408,222.721 134.925 C 222.473 133.860,222.480 133.885,222.297 133.417 C 221.875 132.335,221.811 128.739,221.855 108.794 C 221.903 86.834,222.018 83.233,222.743 81.004 C 224.216 76.468,226.748 74.210,231.407 73.276 C 232.713 73.014,238.311 73.339,239.415 73.740 M315.829 73.624 C 319.675 74.918,321.783 77.016,323.144 80.905 C 323.704 82.505,323.717 82.794,323.811 95.289 L 323.906 108.040 315.094 108.040 L 306.281 108.040 306.281 119.293 C 306.281 130.468,306.285 130.555,306.847 131.653 C 308.076 134.058,311.384 134.846,314.070 133.373 C 316.265 132.170,316.583 130.596,316.583 120.934 L 316.583 113.568 320.186 113.568 L 323.788 113.568 323.948 121.420 C 324.233 135.367,322.475 139.400,315.371 141.099 C 307.374 143.010,301.108 139.765,299.319 132.784 C 298.645 130.153,298.627 85.082,299.299 82.206 C 300.350 77.709,302.609 75.084,306.658 73.653 C 308.307 73.071,314.132 73.052,315.829 73.624 M349.104 73.612 L 349.749 73.857 349.749 77.985 L 349.749 82.113 348.304 81.734 C 345.514 81.001,342.195 81.978,340.589 84.006 L 339.824 84.971 339.698 112.775 L 339.573 140.578 335.616 140.647 L 331.658 140.716 331.658 107.418 L 331.658 74.121 334.910 74.121 C 338.679 74.121,338.518 74.015,338.693 76.610 L 338.819 78.472 339.824 77.124 C 341.984 74.226,346.362 72.569,349.104 73.612 M233.291 80.899 C 231.209 81.211,230.233 82.230,229.667 84.684 C 229.247 86.508,229.314 102.131,229.744 102.487 C 229.984 102.687,231.547 102.754,234.832 102.707 L 239.573 102.638 239.645 94.095 C 239.720 85.173,239.618 84.018,238.632 82.595 C 237.718 81.277,235.492 80.570,233.291 80.899 M309.857 80.898 C 306.522 81.418,306.281 82.269,306.281 93.521 L 306.281 102.764 311.280 102.764 C 315.606 102.764,316.298 102.710,316.430 102.366 C 316.699 101.667,316.597 86.599,316.313 85.064 C 315.711 81.807,313.436 80.339,309.857 80.898 M205.844 94.472 C 205.813 94.680,205.731 96.771,205.662 99.121 C 205.593 101.470,205.484 103.731,205.421 104.146 C 205.004 106.873,204.968 120.079,205.376 120.488 C 206.048 121.159,206.038 121.369,205.967 107.389 C 205.930 100.078,205.875 94.265,205.844 94.472 " stroke="none" fill="#259c7a" fill-rule="evenodd"></path><path id="path1" d="M3.870 33.857 C 3.958 35.066,4.143 37.242,4.280 38.693 C 4.859 44.807,5.042 46.840,5.402 51.131 C 5.611 53.618,5.890 56.784,6.022 58.166 C 6.154 59.548,6.378 61.979,6.520 63.568 C 6.661 65.157,6.893 67.701,7.035 69.221 C 7.379 72.908,8.020 80.254,8.538 86.432 C 8.660 87.883,8.939 90.992,9.160 93.342 C 9.381 95.691,9.674 98.913,9.813 100.503 C 10.106 103.875,10.342 106.498,11.437 118.593 C 11.656 121.011,11.949 124.290,12.088 125.879 C 12.378 129.202,12.677 132.600,13.029 136.587 C 13.165 138.123,13.344 139.875,13.427 140.481 C 13.510 141.087,13.701 143.222,13.851 145.226 C 14.116 148.763,14.303 150.930,14.796 156.156 C 14.927 157.538,15.159 160.138,15.312 161.935 C 15.638 165.770,16.035 169.385,16.140 169.490 C 16.181 169.531,17.795 169.450,19.728 169.311 C 23.256 169.056,23.935 169.002,33.417 168.226 C 36.250 167.994,39.868 167.698,41.457 167.569 C 45.078 167.274,49.298 166.914,51.786 166.689 C 54.272 166.464,54.065 165.674,54.315 176.360 C 54.822 198.102,55.017 204.451,55.204 205.322 L 55.402 206.247 57.286 204.471 C 58.323 203.494,60.647 201.269,62.452 199.526 C 64.256 197.783,68.383 193.816,71.622 190.711 C 74.862 187.605,78.924 183.705,80.650 182.042 C 82.375 180.380,85.202 177.660,86.931 175.997 C 88.661 174.334,91.319 171.769,92.839 170.297 C 94.359 168.825,96.312 166.950,97.179 166.132 L 98.755 164.644 104.591 164.491 C 111.882 164.300,121.301 163.947,132.035 163.461 C 136.595 163.255,143.040 163.012,146.357 162.922 C 152.549 162.753,152.896 162.696,152.691 161.899 C 152.592 161.515,152.566 161.532,152.542 161.997 C 152.513 162.550,152.447 162.563,149.527 162.563 L 146.541 162.563 146.373 161.872 C 146.104 160.770,145.632 156.004,144.488 142.839 C 144.343 141.181,144.054 137.902,143.846 135.553 C 143.637 133.204,143.333 129.444,143.171 127.198 C 142.863 122.940,142.604 122.111,142.347 124.560 C 142.263 125.355,142.089 126.853,141.960 127.889 C 141.830 128.926,141.539 131.470,141.313 133.543 C 141.086 135.616,140.772 138.046,140.614 138.945 L 140.327 140.578 135.681 140.578 L 131.035 140.578 130.866 139.322 C 130.774 138.631,130.567 136.652,130.407 134.925 C 130.247 133.197,129.957 130.258,129.763 128.392 C 129.568 126.526,129.286 123.813,129.136 122.362 C 128.986 120.911,128.761 118.763,128.636 117.588 C 128.512 116.413,128.235 113.700,128.020 111.558 C 127.654 107.892,127.494 106.358,126.886 100.691 C 126.749 99.413,126.467 96.671,126.258 94.598 C 126.050 92.525,125.770 89.812,125.637 88.568 C 125.503 87.324,125.270 85.063,125.120 83.543 C 124.970 82.023,124.691 79.366,124.502 77.638 C 124.082 73.818,123.804 74.091,128.035 74.176 L 131.533 74.246 131.694 75.879 C 131.782 76.778,131.982 79.039,132.137 80.905 C 132.293 82.770,132.528 85.427,132.660 86.809 C 132.919 89.518,133.200 92.767,133.793 99.874 C 134.000 102.362,134.279 105.584,134.412 107.035 C 134.546 108.486,134.776 111.030,134.923 112.688 C 135.070 114.347,135.362 117.626,135.573 119.975 C 135.987 124.609,136.274 125.548,136.515 123.067 C 136.600 122.196,136.780 120.634,136.915 119.598 C 137.050 118.562,137.393 115.848,137.676 113.568 C 138.326 108.341,138.645 105.867,138.954 103.643 C 140.047 95.792,140.597 90.428,140.259 90.907 C 140.107 91.122,139.972 90.386,139.865 88.771 C 139.710 86.419,139.266 81.020,138.692 74.497 C 138.545 72.839,138.319 70.182,138.189 68.593 C 137.637 61.851,137.441 59.515,137.197 56.784 C 137.055 55.195,136.938 53.364,136.937 52.716 L 136.935 51.538 138.003 51.391 C 138.945 51.261,147.721 50.743,155.276 50.372 C 156.727 50.301,159.574 50.115,161.603 49.959 C 165.854 49.632,165.422 50.006,165.812 46.313 C 165.941 45.093,166.287 41.987,166.582 39.410 C 166.876 36.833,167.081 34.233,167.038 33.631 L 166.960 32.538 141.960 32.371 C 128.210 32.279,102.318 32.082,84.422 31.934 C 66.526 31.785,41.045 31.662,27.797 31.661 L 3.709 31.658 3.870 33.857 M64.415 52.701 C 64.563 53.213,65.386 56.776,66.171 60.302 C 66.371 61.200,66.777 63.009,67.074 64.322 C 68.569 70.930,69.245 73.958,69.965 77.261 C 70.327 78.920,70.726 80.729,70.853 81.281 C 70.980 81.834,71.252 83.021,71.458 83.920 C 71.664 84.818,72.072 86.627,72.364 87.940 C 72.656 89.253,73.052 91.005,73.243 91.834 C 73.435 92.663,73.829 94.416,74.118 95.729 C 74.407 97.041,74.761 98.624,74.903 99.246 C 75.045 99.868,75.263 100.829,75.387 101.382 C 75.511 101.935,75.970 103.970,76.407 105.905 C 76.844 107.839,77.288 109.818,77.392 110.302 C 77.959 112.915,78.399 114.877,78.453 115.029 C 78.487 115.124,78.572 101.068,78.642 83.794 L 78.769 52.387 82.538 52.387 L 86.307 52.387 86.307 96.482 L 86.307 140.578 82.194 140.647 C 77.807 140.721,77.537 140.658,77.304 139.502 C 77.120 138.585,76.809 137.318,75.999 134.171 C 75.626 132.720,75.233 131.137,75.126 130.653 C 75.019 130.170,73.719 125.025,72.235 119.221 C 70.752 113.417,69.452 108.273,69.346 107.789 C 69.239 107.305,68.847 105.722,68.473 104.271 C 68.100 102.820,67.702 101.237,67.589 100.754 C 66.384 95.586,61.679 77.433,61.572 77.540 C 61.495 77.617,61.432 91.832,61.432 109.129 L 61.432 140.578 57.663 140.578 L 53.894 140.578 53.830 96.734 C 53.795 72.619,53.819 52.748,53.885 52.575 C 54.098 52.014,64.251 52.135,64.415 52.701 M111.055 73.616 C 114.712 74.878,116.882 76.927,118.099 80.269 C 118.967 82.649,119.095 84.738,119.095 96.416 L 119.095 108.034 110.239 108.100 L 101.382 108.166 101.312 117.588 C 101.225 129.337,101.483 131.758,102.950 132.937 C 104.966 134.556,108.975 134.240,110.377 132.352 C 111.492 130.851,111.558 130.259,111.558 121.696 L 111.558 113.568 115.327 113.568 L 119.095 113.568 119.095 121.832 C 119.095 135.813,117.594 139.276,110.740 141.101 C 103.373 143.062,96.732 140.041,94.675 133.794 L 94.095 132.035 94.095 107.789 C 94.095 81.525,94.052 82.427,95.485 79.231 C 96.887 76.106,99.629 74.008,103.266 73.279 C 104.386 73.054,110.150 73.304,111.055 73.616 M142.471 74.355 C 142.328 74.623,142.224 75.160,142.240 75.549 C 142.261 76.043,142.301 76.105,142.376 75.754 C 142.758 73.944,142.315 74.121,146.476 74.121 L 150.228 74.121 150.382 75.063 C 150.647 76.684,150.695 76.787,150.725 75.800 C 150.782 73.904,150.706 73.869,146.482 73.869 C 143.031 73.869,142.710 73.908,142.471 74.355 M161.568 74.234 C 161.401 74.435,161.318 74.802,161.382 75.051 C 161.473 75.401,161.506 75.373,161.529 74.929 C 161.546 74.587,161.785 74.264,162.123 74.128 C 162.506 73.975,162.556 73.896,162.280 73.885 C 162.055 73.877,161.734 74.034,161.568 74.234 M160.975 78.017 C 160.884 78.569,160.823 79.416,160.839 79.899 C 160.857 80.451,160.948 80.170,161.083 79.146 C 161.321 77.334,161.236 76.438,160.975 78.017 M141.886 78.109 C 141.788 78.576,141.721 79.254,141.736 79.617 C 141.754 80.052,141.841 79.891,141.989 79.146 C 142.113 78.524,142.181 77.845,142.139 77.638 C 142.097 77.431,141.983 77.643,141.886 78.109 M150.937 79.523 C 151.012 80.490,151.115 81.329,151.165 81.386 C 151.333 81.579,151.199 79.281,150.998 78.518 C 150.878 78.060,150.854 78.456,150.937 79.523 M103.594 81.396 C 101.544 82.646,101.268 84.151,101.262 94.138 C 101.259 98.445,101.325 102.148,101.409 102.366 C 101.541 102.710,102.234 102.764,106.560 102.764 L 111.558 102.764 111.558 93.876 C 111.558 83.228,111.407 82.497,108.957 81.275 C 107.819 80.707,104.604 80.780,103.594 81.396 M141.375 82.133 C 141.282 82.598,141.220 83.387,141.237 83.888 C 141.260 84.578,141.321 84.434,141.487 83.291 C 141.728 81.640,141.645 80.782,141.375 82.133 M160.377 84.422 C 160.377 85.182,160.424 85.493,160.481 85.113 C 160.539 84.733,160.539 84.111,160.481 83.731 C 160.424 83.351,160.377 83.662,160.377 84.422 M151.579 84.799 C 151.581 85.490,151.630 85.743,151.688 85.361 C 151.746 84.979,151.744 84.414,151.684 84.105 C 151.625 83.796,151.578 84.108,151.579 84.799 M151.817 86.935 C 151.817 87.418,151.869 87.616,151.932 87.374 C 151.995 87.133,151.995 86.737,151.932 86.495 C 151.869 86.253,151.817 86.451,151.817 86.935 M160.109 86.935 C 160.109 87.418,160.160 87.616,160.223 87.374 C 160.287 87.133,160.287 86.737,160.223 86.495 C 160.160 86.253,160.109 86.451,160.109 86.935 M140.618 88.285 C 140.515 89.236,140.484 90.065,140.547 90.128 C 140.712 90.294,141.024 87.594,140.904 87.031 C 140.849 86.771,140.720 87.335,140.618 88.285 M159.696 90.349 C 159.600 91.405,159.574 92.321,159.637 92.384 C 159.701 92.448,159.833 91.638,159.932 90.585 C 160.031 89.532,160.057 88.616,159.990 88.550 C 159.924 88.483,159.791 89.293,159.696 90.349 M152.053 89.322 C 152.045 89.736,152.133 90.528,152.247 91.080 C 152.428 91.955,152.457 91.987,152.469 91.332 C 152.477 90.917,152.390 90.126,152.276 89.573 C 152.095 88.699,152.066 88.666,152.053 89.322 M146.261 92.902 C 146.354 94.286,146.675 94.831,146.704 93.656 C 146.720 92.999,146.621 92.462,146.482 92.462 C 146.344 92.462,146.245 92.660,146.261 92.902 M152.699 95.226 C 152.773 96.263,152.874 97.158,152.924 97.215 C 153.092 97.409,152.958 94.857,152.760 94.095 C 152.646 93.654,152.620 94.122,152.699 95.226 M159.162 95.343 C 159.064 96.259,159.041 97.064,159.110 97.133 C 159.179 97.202,159.316 96.510,159.414 95.595 C 159.512 94.679,159.535 93.874,159.466 93.805 C 159.397 93.736,159.261 94.428,159.162 95.343 M145.879 95.403 C 145.790 96.204,145.651 97.425,145.569 98.116 C 145.487 98.807,145.487 99.309,145.568 99.232 C 145.755 99.054,146.303 94.209,146.153 94.059 C 146.091 93.997,145.968 94.602,145.879 95.403 M146.792 95.980 C 146.792 96.464,146.844 96.661,146.907 96.420 C 146.970 96.178,146.970 95.782,146.907 95.540 C 146.844 95.298,146.792 95.496,146.792 95.980 M147.015 98.388 C 147.031 99.205,147.133 100.214,147.242 100.628 C 147.355 101.062,147.381 100.475,147.303 99.246 C 147.144 96.753,146.972 96.239,147.015 98.388 M158.714 99.374 C 158.623 99.926,158.562 100.886,158.578 101.508 C 158.601 102.389,158.656 102.223,158.826 100.754 C 159.063 98.714,158.983 97.742,158.714 99.374 M153.342 100.503 C 153.342 101.263,153.389 101.573,153.446 101.193 C 153.504 100.813,153.504 100.192,153.446 99.812 C 153.389 99.432,153.342 99.742,153.342 100.503 M145.267 100.503 C 145.242 100.986,145.166 101.834,145.099 102.387 L 144.977 103.392 145.240 102.552 C 145.385 102.090,145.461 101.242,145.409 100.667 C 145.319 99.680,145.311 99.671,145.267 100.503 M153.576 102.764 C 153.576 103.247,153.628 103.445,153.691 103.204 C 153.754 102.962,153.754 102.566,153.691 102.324 C 153.628 102.082,153.576 102.280,153.576 102.764 M147.549 103.518 C 147.548 104.139,147.633 104.987,147.739 105.402 L 147.930 106.156 147.942 105.402 C 147.948 104.987,147.862 104.139,147.752 103.518 L 147.550 102.387 147.549 103.518 M144.623 105.742 C 144.523 106.621,144.496 107.393,144.562 107.460 C 144.728 107.626,145.055 104.886,144.917 104.477 C 144.855 104.295,144.723 104.864,144.623 105.742 M153.815 105.025 C 153.805 105.509,153.891 106.357,154.006 106.910 C 154.294 108.304,154.318 106.878,154.033 105.276 C 153.845 104.222,153.831 104.205,153.815 105.025 M157.948 107.257 C 157.851 108.415,157.822 109.413,157.883 109.474 C 158.040 109.631,158.370 105.890,158.235 105.485 C 158.174 105.301,158.044 106.098,157.948 107.257 M148.168 109.296 C 148.245 110.471,148.399 111.941,148.508 112.563 C 148.640 113.312,148.660 112.973,148.566 111.558 C 148.488 110.383,148.335 108.913,148.226 108.291 C 148.094 107.542,148.074 107.881,148.168 109.296 M144.126 109.913 C 143.708 113.643,143.667 114.186,143.809 114.053 C 144.006 113.870,144.561 108.799,144.402 108.640 C 144.336 108.574,144.212 109.147,144.126 109.913 M154.439 110.678 C 154.519 111.646,154.627 112.484,154.679 112.542 C 154.866 112.749,154.719 110.162,154.509 109.548 C 154.374 109.151,154.348 109.568,154.439 110.678 M157.408 112.132 C 157.314 112.885,157.283 113.714,157.340 113.974 C 157.396 114.234,157.530 113.675,157.638 112.731 C 157.745 111.788,157.776 110.959,157.706 110.889 C 157.636 110.819,157.502 111.378,157.408 112.132 M154.956 115.327 C 155.032 116.363,155.136 117.258,155.186 117.316 C 155.365 117.523,155.222 114.684,155.021 114.070 C 154.900 113.698,154.873 114.211,154.956 115.327 M148.769 115.222 C 148.783 116.040,148.888 116.991,149.003 117.337 C 149.129 117.714,149.156 117.162,149.070 115.955 C 148.899 113.551,148.734 113.148,148.769 115.222 M143.511 115.075 C 143.484 115.559,143.404 116.407,143.332 116.960 C 143.220 117.834,143.238 117.885,143.472 117.347 C 143.620 117.007,143.701 116.159,143.651 115.463 C 143.586 114.562,143.546 114.450,143.511 115.075 M156.953 116.304 C 156.860 116.768,156.799 117.728,156.817 118.436 C 156.846 119.619,156.867 119.571,157.067 117.839 C 157.301 115.827,157.232 114.908,156.953 116.304 M155.454 119.472 C 155.530 120.578,155.684 121.935,155.797 122.487 C 155.935 123.162,155.956 122.831,155.861 121.482 C 155.783 120.377,155.629 119.020,155.517 118.467 C 155.383 117.801,155.362 118.139,155.454 119.472 M142.878 120.315 C 142.771 121.194,142.738 121.967,142.805 122.034 C 142.985 122.214,143.277 120.028,143.167 119.323 C 143.116 118.991,142.985 119.437,142.878 120.315 M149.305 120.101 C 149.300 120.861,149.387 121.765,149.497 122.111 C 149.779 122.989,149.786 121.751,149.509 119.975 L 149.313 118.719 149.305 120.101 M156.449 121.168 C 156.032 124.324,155.990 124.988,156.224 124.749 C 156.358 124.611,156.540 123.508,156.628 122.299 C 156.794 119.997,156.690 119.339,156.449 121.168 M149.907 125.879 C 149.978 127.054,150.141 128.693,150.268 129.523 C 150.395 130.352,150.511 131.595,150.526 132.286 C 150.540 132.977,150.652 133.825,150.774 134.171 C 151.020 134.870,150.931 133.281,150.478 128.894 C 150.066 124.909,149.744 123.211,149.907 125.879 M151.023 136.704 C 151.032 137.591,151.144 138.543,151.271 138.819 C 151.419 139.143,151.447 138.609,151.348 137.312 C 151.160 134.841,150.999 134.540,151.023 136.704 M151.550 140.452 C 151.643 140.736,152.103 140.835,153.412 140.851 C 155.067 140.872,155.078 140.868,153.652 140.774 C 152.828 140.720,151.989 140.540,151.789 140.375 C 151.498 140.135,151.450 140.150,151.550 140.452 M152.925 158.344 C 152.840 158.661,152.782 159.259,152.797 159.673 C 152.815 160.194,152.888 160.040,153.032 159.179 C 153.251 157.866,153.187 157.365,152.925 158.344 " stroke="none" fill="#e23033" fill-rule="evenodd"></path><path id="path2" d="M207.412 3.426 C 206.859 3.467,204.428 3.621,202.010 3.770 C 199.592 3.918,196.030 4.148,194.095 4.281 C 192.161 4.413,187.751 4.691,184.296 4.896 C 180.842 5.102,176.291 5.385,174.183 5.525 C 165.530 6.099,160.731 6.405,152.513 6.906 C 144.572 7.390,142.825 7.501,138.568 7.787 C 133.756 8.111,127.918 8.478,120.603 8.918 C 113.667 9.335,107.931 9.695,102.387 10.060 C 100.314 10.197,95.848 10.477,92.462 10.683 C 89.077 10.888,84.554 11.171,82.412 11.312 C 78.133 11.593,71.784 12.004,68.844 12.190 C 65.708 12.389,54.907 13.067,50.628 13.333 C 48.417 13.471,44.969 13.688,42.965 13.815 C 40.961 13.942,37.230 14.166,34.673 14.312 C 32.117 14.459,29.658 14.639,29.209 14.713 L 28.392 14.847 28.392 16.514 C 28.392 17.432,28.499 19.151,28.630 20.335 C 28.974 23.445,29.407 28.537,29.469 30.212 L 29.523 31.655 40.704 31.659 C 46.853 31.661,66.526 31.785,84.422 31.934 C 102.318 32.082,128.210 32.279,141.960 32.371 L 166.960 32.538 167.034 33.684 C 167.076 34.315,166.876 36.859,166.590 39.338 C 165.192 51.483,165.233 50.352,166.184 50.460 C 166.586 50.506,167.152 50.423,167.440 50.276 C 167.729 50.128,169.604 49.953,171.608 49.887 C 173.612 49.821,177.173 49.659,179.523 49.528 C 181.872 49.397,187.073 49.106,191.080 48.880 C 195.088 48.655,200.232 48.370,202.513 48.247 C 207.535 47.977,209.579 47.742,209.401 47.453 C 209.327 47.333,209.382 45.907,209.523 44.284 C 209.782 41.305,209.991 38.313,210.676 27.764 C 210.882 24.585,211.163 20.459,211.299 18.593 C 211.549 15.166,211.945 9.148,212.172 5.339 L 212.296 3.266 210.356 3.309 C 209.290 3.332,207.965 3.384,207.412 3.426 M206.972 52.192 C 207.421 52.248,208.156 52.248,208.606 52.192 C 209.055 52.136,208.687 52.090,207.789 52.090 C 206.891 52.090,206.523 52.136,206.972 52.192 M165.578 53.000 C 165.578 53.407,165.465 53.809,165.327 53.894 C 165.188 53.980,165.075 54.771,165.075 55.653 C 165.075 56.535,164.962 57.327,164.824 57.412 C 164.686 57.497,164.573 58.316,164.573 59.231 C 164.573 60.145,164.466 61.241,164.336 61.666 C 164.206 62.090,163.973 63.851,163.818 65.578 C 163.327 71.038,163.118 72.719,162.843 73.430 L 162.575 74.121 165.668 74.121 C 167.369 74.121,168.815 74.175,168.881 74.241 C 169.003 74.363,168.931 75.116,168.221 81.156 C 167.818 84.582,167.537 86.981,167.094 90.766 C 166.813 93.171,166.466 96.085,165.934 100.503 C 165.726 102.230,165.448 104.576,165.316 105.716 C 165.070 107.838,164.981 108.621,164.095 116.457 C 163.814 118.945,163.471 121.828,163.332 122.864 C 163.194 123.901,162.905 126.332,162.691 128.266 C 162.477 130.201,162.196 132.632,162.065 133.668 C 161.935 134.705,161.691 136.658,161.522 138.009 C 161.150 140.986,161.489 140.822,156.055 140.662 C 153.899 140.598,152.755 140.588,153.512 140.639 C 155.198 140.753,155.237 140.812,154.990 142.909 C 154.881 143.838,154.669 145.672,154.519 146.985 C 154.152 150.209,153.861 152.643,153.272 157.412 C 152.999 159.623,152.745 161.715,152.707 162.060 C 152.638 162.687,152.632 162.689,149.373 162.814 L 146.107 162.940 146.180 164.824 C 146.220 165.861,146.354 167.557,146.478 168.593 C 146.601 169.629,146.776 171.673,146.865 173.135 C 147.073 176.544,147.033 176.489,149.424 176.564 C 155.747 176.763,180.064 177.704,190.201 178.142 C 193.310 178.277,199.289 178.521,203.486 178.686 L 211.119 178.985 211.927 179.882 C 212.817 180.869,212.693 180.728,225.390 195.209 C 230.288 200.796,235.144 206.344,236.181 207.538 C 240.755 212.807,247.971 221.070,249.121 222.356 C 249.812 223.128,250.995 224.476,251.750 225.350 C 253.507 227.383,253.414 227.757,253.616 217.810 C 253.704 213.473,253.888 206.363,254.023 202.010 C 254.159 197.657,254.340 191.289,254.425 187.858 C 254.555 182.627,254.641 181.597,254.959 181.475 C 255.168 181.395,257.331 181.464,259.767 181.629 C 275.312 182.682,276.795 182.761,276.574 182.530 C 276.473 182.423,274.890 182.238,273.057 182.118 C 266.293 181.674,266.673 181.758,265.422 180.441 C 264.811 179.798,264.213 179.174,264.093 179.055 C 263.973 178.936,263.592 178.556,263.247 178.210 C 262.901 177.865,262.505 177.469,262.367 177.332 C 262.039 177.006,258.673 173.639,258.347 173.312 C 258.023 172.986,256.913 171.876,256.588 171.553 C 256.260 171.227,252.894 167.861,252.568 167.533 C 252.244 167.207,251.134 166.097,250.809 165.774 C 250.481 165.448,247.044 162.010,246.719 161.683 C 246.397 161.360,245.444 160.407,245.029 159.994 C 244.610 159.577,241.265 156.231,240.940 155.905 C 237.382 152.327,237.296 152.261,236.204 152.261 C 235.655 152.261,235.136 152.148,235.050 152.010 C 234.965 151.872,234.688 151.759,234.434 151.759 C 233.839 151.759,233.668 151.278,233.668 149.603 C 233.668 148.854,233.559 148.241,233.426 148.241 C 233.292 148.241,232.400 147.437,231.443 146.455 C 230.486 145.473,229.590 144.556,229.452 144.417 C 229.129 144.092,228.019 142.982,227.693 142.658 C 227.366 142.332,223.999 138.966,223.673 138.638 C 223.350 138.313,222.240 137.203,221.915 136.879 C 221.587 136.553,218.210 133.177,217.929 132.894 C 217.811 132.775,217.400 132.363,217.016 131.979 C 216.632 131.595,216.236 131.194,216.136 131.087 C 216.036 130.980,215.709 130.691,215.409 130.446 C 214.920 130.046,214.841 129.647,214.655 126.620 C 214.466 123.545,214.436 124.021,214.322 131.910 L 214.196 140.578 210.302 140.578 L 206.407 140.578 206.280 96.482 C 206.210 72.004,206.126 61.245,206.092 72.299 C 206.058 83.251,205.969 92.211,205.894 92.211 C 205.819 92.211,204.252 90.706,202.411 88.866 L 199.063 85.520 198.913 84.029 C 198.542 80.354,198.489 80.147,197.304 77.764 C 195.733 74.603,191.863 72.613,187.288 72.613 L 186.158 72.613 175.988 62.437 C 164.879 51.322,165.578 51.955,165.578 53.000 M192.085 73.892 C 197.343 75.834,198.204 77.876,198.415 88.910 C 198.581 97.552,198.949 96.725,194.933 96.730 C 190.791 96.735,191.206 97.438,191.206 90.423 C 191.206 82.312,190.236 80.402,186.117 80.402 C 181.788 80.402,180.905 82.050,180.905 90.123 C 180.905 97.897,181.470 98.912,189.258 105.138 C 197.502 111.728,198.744 114.384,198.744 125.427 C 198.744 133.862,198.171 136.332,195.694 138.569 C 191.740 142.141,181.895 142.584,177.447 139.389 C 174.045 136.945,173.512 135.149,173.416 125.809 L 173.339 118.327 176.808 118.397 L 180.276 118.467 180.402 124.791 L 180.528 131.114 181.281 132.180 C 183.410 135.191,188.493 135.170,190.201 132.143 C 190.824 131.040,190.829 130.976,190.829 124.874 L 190.829 118.719 190.158 117.447 C 188.887 115.039,186.990 112.939,182.412 108.871 C 173.454 100.911,173.276 100.516,173.420 88.945 C 173.539 79.418,174.109 77.528,177.552 75.219 C 180.781 73.055,188.025 72.393,192.085 73.892 M221.807 108.229 C 221.743 120.355,221.778 130.503,221.885 130.779 C 221.991 131.055,222.086 121.134,222.095 108.731 C 222.103 96.329,222.068 86.181,222.017 86.181 C 221.965 86.181,221.871 96.102,221.807 108.229 M61.307 114.623 C 61.237 128.954,61.266 140.593,61.371 140.489 C 61.475 140.384,61.531 128.660,61.496 114.433 L 61.432 88.568 61.307 114.623 M205.919 120.798 C 205.062 121.655,204.683 108.974,205.421 104.146 C 205.484 103.731,205.593 101.470,205.662 99.121 C 205.731 96.771,205.813 94.680,205.844 94.472 C 205.875 94.265,205.930 100.078,205.967 107.389 C 206.004 114.700,205.982 120.734,205.919 120.798 M78.751 109.296 C 78.751 112.406,78.787 113.678,78.831 112.123 C 78.875 110.568,78.875 108.024,78.831 106.470 C 78.787 104.915,78.751 106.187,78.751 109.296 M229.464 122.487 C 229.455 126.357,229.521 129.784,229.610 130.104 C 229.766 130.658,229.718 118.176,229.558 116.332 C 229.516 115.848,229.474 118.618,229.464 122.487 M222.140 132.334 C 222.124 132.914,222.224 133.457,222.362 133.543 C 222.645 133.718,222.645 133.150,222.362 132.035 C 222.181 131.323,222.168 131.340,222.140 132.334 M230.786 132.671 C 231.268 133.204,232.645 134.037,232.776 133.875 C 232.812 133.831,232.268 133.418,231.567 132.960 C 230.671 132.374,230.439 132.288,230.786 132.671 M222.684 134.862 C 222.835 135.380,223.164 136.104,223.414 136.471 C 223.664 136.838,223.869 137.204,223.869 137.285 C 223.869 137.488,224.652 138.432,225.224 138.918 C 225.486 139.140,225.879 139.519,226.097 139.761 C 226.315 140.003,226.695 140.201,226.940 140.201 C 227.186 140.201,227.387 140.314,227.387 140.452 C 227.387 140.590,227.613 140.704,227.889 140.704 C 228.166 140.704,228.392 140.817,228.392 140.955 C 228.392 141.093,228.652 141.206,228.970 141.206 C 229.288 141.206,229.655 141.305,229.786 141.425 C 230.147 141.756,232.991 141.973,233.419 141.702 C 233.684 141.535,233.425 141.463,232.538 141.459 C 228.537 141.441,224.593 138.749,223.240 135.113 C 222.714 133.699,222.288 133.507,222.684 134.862 M121.734 163.853 C 119.108 163.966,113.918 164.194,110.200 164.358 L 103.439 164.656 104.295 165.404 C 105.352 166.327,111.887 172.181,112.060 172.359 C 112.129 172.430,113.712 173.845,115.578 175.503 C 117.443 177.160,119.479 178.980,120.101 179.545 C 120.722 180.111,122.531 181.740,124.121 183.164 C 125.710 184.589,127.556 186.246,128.223 186.847 C 128.890 187.448,129.528 187.940,129.641 187.940 C 129.873 187.940,130.080 183.331,130.279 173.744 C 130.353 170.151,130.481 166.391,130.563 165.389 L 130.712 163.568 128.610 163.607 C 127.454 163.629,124.359 163.740,121.734 163.853 M277.910 182.755 C 277.968 182.806,279.315 182.910,280.905 182.987 C 282.805 183.078,283.450 183.051,282.789 182.909 C 281.815 182.699,277.699 182.570,277.910 182.755 M286.453 183.260 C 286.511 183.311,287.632 183.414,288.945 183.489 C 290.647 183.586,290.971 183.565,290.075 183.417 C 288.778 183.203,286.268 183.094,286.453 183.260 M294.661 183.846 C 294.972 183.906,295.481 183.906,295.791 183.846 C 296.102 183.786,295.848 183.737,295.226 183.737 C 294.604 183.737,294.350 183.786,294.661 183.846 M297.676 184.097 C 297.987 184.157,298.496 184.157,298.807 184.097 C 299.117 184.037,298.863 183.988,298.241 183.988 C 297.619 183.988,297.365 184.037,297.676 184.097 M302.324 184.344 C 302.566 184.407,302.962 184.407,303.204 184.344 C 303.445 184.281,303.247 184.229,302.764 184.229 C 302.280 184.229,302.082 184.281,302.324 184.344 M305.967 184.599 C 306.278 184.659,306.787 184.659,307.098 184.599 C 307.409 184.540,307.155 184.491,306.533 184.491 C 305.911 184.491,305.656 184.540,305.967 184.599 " stroke="none" fill="#ccc30f" fill-rule="evenodd"></path><path id="path3" d="M0.000 125.628 L 0.000 251.256 200.000 251.256 L 400.000 251.256 400.000 125.628 L 400.000 0.000 200.000 0.000 L 0.000 0.000 0.000 125.628 M212.172 5.339 C 211.945 9.148,211.549 15.166,211.299 18.593 C 211.163 20.459,210.882 24.585,210.676 27.764 C 209.990 38.334,209.782 41.307,209.521 44.308 C 209.378 45.945,209.319 47.343,209.390 47.413 C 209.460 47.484,211.928 47.409,214.872 47.248 C 217.817 47.086,221.894 46.888,223.932 46.807 C 226.156 46.719,227.728 46.550,227.863 46.383 C 228.083 46.113,227.975 43.815,227.360 35.709 C 227.151 32.958,227.156 32.052,227.381 31.913 C 227.544 31.813,234.197 31.658,242.167 31.570 C 256.079 31.415,269.636 31.224,306.156 30.669 C 315.415 30.528,331.018 30.299,340.829 30.160 C 350.641 30.021,366.389 29.778,375.825 29.619 C 385.261 29.460,393.051 29.400,393.137 29.486 C 393.280 29.629,393.060 33.298,392.465 40.704 C 392.337 42.293,392.116 45.119,391.974 46.985 C 391.832 48.851,391.538 52.638,391.322 55.402 C 391.105 58.166,390.824 61.784,390.696 63.442 C 390.569 65.101,390.352 67.871,390.214 69.598 C 390.076 71.325,389.792 74.943,389.582 77.638 C 389.373 80.333,389.086 83.951,388.945 85.678 C 388.804 87.406,388.578 90.289,388.442 92.085 C 388.307 93.882,388.080 96.765,387.939 98.492 C 387.798 100.220,387.517 103.781,387.313 106.407 C 387.110 109.033,386.827 112.594,386.685 114.322 C 386.544 116.049,386.320 118.932,386.189 120.729 C 385.950 124.018,385.352 131.727,384.904 137.312 C 384.771 138.970,384.557 141.683,384.428 143.342 C 383.023 161.477,383.146 160.435,382.412 160.383 C 379.699 160.193,367.901 159.012,358.982 158.038 C 357.704 157.898,354.397 157.559,351.633 157.285 C 348.869 157.010,346.030 156.715,345.324 156.628 L 344.039 156.471 343.866 158.700 C 343.699 160.846,343.588 164.670,342.955 190.201 C 342.796 196.627,342.620 202.035,342.564 202.219 C 342.499 202.432,341.533 201.789,339.887 200.438 C 338.471 199.276,335.389 196.775,333.040 194.882 C 330.691 192.989,328.599 191.302,328.392 191.134 C 328.185 190.966,327.450 190.376,326.759 189.824 C 326.068 189.271,325.446 188.759,325.377 188.686 C 325.308 188.614,324.064 187.603,322.613 186.442 C 321.162 185.280,319.525 183.949,318.975 183.485 C 317.816 182.508,317.337 182.769,317.337 184.375 L 317.337 185.236 314.384 185.071 C 309.232 184.783,297.124 184.027,287.814 183.412 C 285.741 183.275,281.219 182.994,277.764 182.787 C 271.375 182.405,267.684 182.168,259.767 181.630 C 257.331 181.465,255.168 181.395,254.959 181.475 C 254.641 181.597,254.555 182.627,254.425 187.858 C 254.340 191.289,254.159 197.657,254.023 202.010 C 253.888 206.363,253.704 213.473,253.616 217.810 C 253.414 227.757,253.507 227.383,251.750 225.350 C 250.995 224.476,249.812 223.128,249.121 222.356 C 247.971 221.070,240.755 212.807,236.181 207.538 C 235.144 206.344,230.288 200.796,225.390 195.209 C 212.691 180.727,212.817 180.869,211.926 179.881 L 211.116 178.982 203.360 178.682 C 199.094 178.516,193.172 178.272,190.201 178.140 C 187.230 178.008,181.690 177.779,177.889 177.633 C 174.089 177.486,166.968 177.201,162.065 177.000 C 157.161 176.798,152.073 176.632,150.758 176.630 C 147.873 176.626,147.267 176.486,147.110 175.787 C 146.994 175.266,146.614 170.732,146.273 165.779 C 146.181 164.438,145.992 163.242,145.854 163.120 C 145.611 162.905,136.235 163.139,132.503 163.454 L 130.709 163.606 130.561 165.408 C 130.480 166.400,130.353 170.151,130.279 173.744 C 130.080 183.331,129.873 187.940,129.641 187.940 C 129.528 187.940,128.890 187.448,128.223 186.847 C 127.556 186.246,125.710 184.589,124.121 183.164 C 122.531 181.740,120.722 180.111,120.101 179.545 C 119.479 178.980,117.443 177.160,115.578 175.503 C 113.712 173.845,111.677 172.026,111.055 171.461 C 110.433 170.896,109.189 169.766,108.290 168.948 C 107.390 168.131,105.908 166.812,104.995 166.018 L 103.336 164.573 101.083 164.573 L 98.830 164.573 97.217 166.096 C 96.329 166.934,94.359 168.825,92.839 170.297 C 91.319 171.769,88.661 174.334,86.931 175.997 C 85.202 177.660,82.375 180.380,80.650 182.042 C 78.924 183.705,74.862 187.605,71.622 190.711 C 68.383 193.816,64.256 197.783,62.452 199.526 C 60.647 201.269,58.323 203.494,57.286 204.471 L 55.402 206.247 55.204 205.322 C 55.017 204.451,54.822 198.102,54.315 176.360 C 54.065 165.674,54.272 166.464,51.786 166.689 C 49.298 166.914,45.078 167.274,41.457 167.569 C 39.868 167.698,36.250 167.994,33.417 168.226 C 23.935 169.002,23.256 169.056,19.728 169.311 C 17.795 169.450,16.181 169.531,16.140 169.490 C 16.035 169.385,15.638 165.770,15.312 161.935 C 15.159 160.138,14.927 157.538,14.796 156.156 C 14.303 150.930,14.116 148.763,13.851 145.226 C 13.701 143.222,13.510 141.087,13.427 140.481 C 13.344 139.875,13.165 138.123,13.029 136.587 C 12.677 132.600,12.378 129.202,12.088 125.879 C 11.949 124.290,11.656 121.011,11.437 118.593 C 10.342 106.498,10.106 103.875,9.813 100.503 C 9.674 98.913,9.381 95.691,9.160 93.342 C 8.939 90.992,8.660 87.883,8.538 86.432 C 8.055 80.667,7.397 73.115,7.049 69.347 C 6.915 67.896,6.683 65.352,6.534 63.693 C 6.385 62.035,6.154 59.548,6.022 58.166 C 5.890 56.784,5.611 53.618,5.402 51.131 C 5.042 46.840,4.859 44.807,4.280 38.693 C 4.143 37.242,3.958 35.066,3.870 33.857 L 3.709 31.658 16.538 31.658 C 23.594 31.658,29.421 31.571,29.487 31.465 C 29.599 31.283,29.479 29.594,28.883 22.990 C 28.746 21.470,28.564 19.019,28.478 17.543 L 28.322 14.860 29.174 14.719 C 29.642 14.642,32.117 14.459,34.673 14.312 C 37.230 14.166,40.961 13.942,42.965 13.815 C 44.969 13.688,48.417 13.471,50.628 13.333 C 54.907 13.067,65.708 12.389,68.844 12.190 C 71.784 12.004,78.133 11.593,82.412 11.312 C 84.554 11.171,89.077 10.888,92.462 10.683 C 95.848 10.477,100.314 10.197,102.387 10.060 C 107.931 9.695,113.667 9.335,120.603 8.918 C 127.918 8.478,133.756 8.111,138.568 7.787 C 142.825 7.501,144.572 7.390,152.513 6.906 C 160.731 6.405,165.530 6.099,174.183 5.525 C 176.291 5.385,180.842 5.102,184.296 4.896 C 187.751 4.691,192.161 4.413,194.095 4.281 C 196.030 4.148,199.592 3.918,202.010 3.770 C 204.428 3.621,206.859 3.467,207.412 3.426 C 207.965 3.384,209.290 3.332,210.356 3.309 L 212.296 3.266 212.172 5.339 M207.851 52.196 L 206.280 52.285 206.344 96.432 L 206.407 140.578 210.302 140.578 L 214.196 140.578 214.265 96.859 C 214.303 72.814,214.272 52.886,214.197 52.575 C 214.053 51.976,212.917 51.908,207.851 52.196 M53.936 52.429 C 53.844 52.521,53.769 72.362,53.769 96.520 L 53.769 140.443 54.334 140.583 C 54.645 140.660,56.313 140.690,58.040 140.651 L 61.181 140.578 61.243 109.171 C 61.302 79.355,61.364 75.959,61.818 77.764 C 61.922 78.178,63.310 83.662,64.903 89.950 C 66.495 96.237,68.149 102.795,68.577 104.523 C 69.006 106.250,69.469 108.059,69.606 108.543 C 69.854 109.417,72.964 121.749,74.390 127.513 C 74.800 129.171,75.246 130.923,75.381 131.407 C 75.517 131.891,76.075 134.071,76.622 136.251 C 77.170 138.432,77.686 140.326,77.768 140.460 C 77.950 140.753,85.661 140.786,86.119 140.496 C 86.369 140.337,86.421 131.339,86.370 96.342 L 86.307 52.387 82.538 52.387 L 78.769 52.387 78.769 83.710 C 78.769 100.938,78.699 115.103,78.613 115.189 C 78.528 115.274,78.213 114.238,77.913 112.886 C 77.614 111.534,77.264 109.975,77.135 109.422 C 76.904 108.430,76.174 105.186,75.467 102.010 C 75.267 101.112,74.998 99.925,74.869 99.372 C 74.375 97.249,72.050 86.798,71.628 84.799 C 71.334 83.406,69.904 76.990,69.598 75.691 C 69.330 74.552,69.085 73.469,68.503 70.854 C 67.759 67.514,67.062 64.417,66.834 63.442 C 66.260 60.991,64.990 55.301,64.788 54.271 C 64.355 52.068,64.894 52.261,59.196 52.261 C 56.395 52.261,54.028 52.337,53.936 52.429 M255.276 63.170 C 255.276 74.989,255.419 74.121,253.483 74.121 L 251.995 74.121 252.065 77.324 L 252.136 80.528 253.579 80.603 C 255.454 80.701,255.269 77.932,255.345 107.035 L 255.411 132.286 256.104 134.045 C 257.661 138.002,259.948 140.115,263.740 141.103 C 265.301 141.510,269.752 141.577,270.721 141.209 L 271.373 140.961 271.302 138.131 L 271.231 135.302 269.095 135.159 C 266.617 134.994,265.443 134.554,264.508 133.443 C 263.166 131.848,263.204 132.625,263.127 105.722 L 263.056 80.666 267.018 80.597 L 270.980 80.528 270.980 77.387 L 270.980 74.246 267.085 74.121 L 263.191 73.995 263.125 63.505 L 263.060 53.015 259.168 53.015 L 255.276 53.015 255.276 63.170 M277.829 63.505 L 277.764 73.995 276.256 74.121 L 274.749 74.246 274.749 77.387 L 274.749 80.528 276.256 80.653 L 277.764 80.779 277.897 106.281 C 278.040 133.609,277.988 132.522,279.283 135.312 C 281.184 139.407,284.794 141.457,290.101 141.457 C 291.520 141.457,292.975 141.346,293.334 141.209 L 293.986 140.961 293.915 138.131 L 293.844 135.302 291.709 135.159 C 289.228 134.993,288.056 134.554,287.118 133.440 C 285.776 131.845,285.804 132.429,285.804 105.653 L 285.804 80.779 289.761 80.710 L 293.719 80.641 293.719 77.387 L 293.719 74.133 289.761 74.064 L 285.804 73.995 285.738 63.505 L 285.673 53.015 281.784 53.015 L 277.895 53.015 277.829 63.505 M103.392 73.279 C 98.778 74.028,95.658 77.171,94.451 82.286 C 93.930 84.493,93.923 130.596,94.443 132.663 C 95.985 138.792,99.619 141.460,106.407 141.445 C 116.599 141.423,119.095 137.538,119.095 121.699 L 119.095 113.554 115.389 113.624 L 111.683 113.693 111.558 122.111 C 111.426 130.950,111.370 131.392,110.222 132.624 C 108.261 134.730,103.901 134.511,102.364 132.230 C 101.350 130.726,101.228 129.124,101.307 118.342 L 101.382 108.166 110.239 108.100 L 119.095 108.034 119.095 96.542 C 119.095 85.026,118.944 82.557,118.105 80.276 C 116.866 76.910,114.674 74.841,111.055 73.624 C 110.134 73.313,104.690 73.069,103.392 73.279 M182.538 73.267 C 178.286 73.887,175.248 76.363,173.934 80.276 C 173.377 81.937,173.146 95.550,173.639 97.739 C 174.407 101.154,175.994 103.167,182.412 108.871 C 186.990 112.939,188.887 115.039,190.158 117.447 L 190.829 118.719 190.829 124.874 C 190.829 130.976,190.824 131.040,190.201 132.143 C 188.493 135.170,183.410 135.191,181.281 132.180 L 180.528 131.114 180.402 124.791 L 180.276 118.467 176.808 118.397 L 173.339 118.327 173.416 125.809 C 173.512 135.149,174.045 136.945,177.447 139.389 C 181.895 142.584,191.740 142.141,195.694 138.569 C 198.171 136.332,198.744 133.862,198.744 125.427 C 198.744 114.384,197.502 111.728,189.258 105.138 C 181.470 98.912,180.905 97.897,180.905 90.123 C 180.905 82.050,181.788 80.402,186.117 80.402 C 190.236 80.402,191.206 82.312,191.206 90.423 C 191.206 97.438,190.791 96.735,194.933 96.730 C 198.949 96.725,198.581 97.552,198.415 88.910 C 198.204 77.876,197.343 75.834,192.085 73.892 C 190.594 73.342,184.679 72.954,182.538 73.267 M231.407 73.276 C 226.230 74.314,223.471 77.166,222.378 82.613 C 222.008 84.456,222.008 130.371,222.378 132.211 C 223.660 138.592,227.353 141.455,234.296 141.452 C 240.939 141.450,244.549 139.142,246.423 133.698 C 246.753 132.740,246.840 130.886,246.920 123.053 L 247.018 113.568 243.358 113.568 L 239.698 113.568 239.698 121.371 C 239.698 132.638,239.136 133.993,234.464 133.993 C 229.719 133.993,229.369 132.922,229.457 118.707 L 229.523 108.166 238.268 108.100 L 247.014 108.034 246.924 95.034 L 246.835 82.035 246.171 80.343 C 244.785 76.812,242.961 75.029,239.415 73.740 C 238.311 73.339,232.713 73.014,231.407 73.276 M308.166 73.272 C 303.717 73.951,300.462 77.231,299.299 82.206 C 298.627 85.082,298.645 130.153,299.319 132.784 C 301.108 139.765,307.374 143.010,315.371 141.099 C 322.475 139.400,324.233 135.367,323.948 121.420 L 323.788 113.568 320.186 113.568 L 316.583 113.568 316.583 120.934 C 316.583 130.596,316.265 132.170,314.070 133.373 C 311.384 134.846,308.076 134.058,306.847 131.653 C 306.285 130.555,306.281 130.468,306.281 119.293 L 306.281 108.040 315.094 108.040 L 323.906 108.040 323.811 95.289 C 323.717 82.794,323.704 82.505,323.144 80.905 C 321.783 77.016,319.675 74.918,315.829 73.624 C 314.920 73.318,309.497 73.069,308.166 73.272 M344.251 73.862 C 342.418 74.486,341.025 75.513,339.824 77.124 L 338.819 78.472 338.693 76.610 C 338.518 74.015,338.679 74.121,334.910 74.121 L 331.658 74.121 331.658 107.418 L 331.658 140.716 335.616 140.647 L 339.573 140.578 339.698 112.775 L 339.824 84.971 340.589 84.006 C 342.195 81.978,345.514 81.001,348.304 81.734 L 349.749 82.113 349.749 77.985 L 349.749 73.857 349.104 73.612 C 348.106 73.232,345.744 73.354,344.251 73.862 M124.292 74.284 C 124.194 74.382,124.173 74.809,124.245 75.233 C 124.377 76.008,124.767 79.733,125.880 90.829 C 126.005 92.073,126.290 94.786,126.514 96.859 C 126.737 98.932,127.022 101.646,127.146 102.889 C 127.270 104.133,127.484 106.225,127.623 107.538 C 127.873 109.916,128.421 115.198,128.913 119.975 C 129.208 122.848,129.454 125.189,130.018 130.528 C 130.238 132.601,130.534 135.593,130.676 137.178 C 131.018 140.985,130.631 140.728,135.901 140.646 L 140.323 140.578 140.615 138.819 C 140.775 137.852,141.090 135.364,141.314 133.291 C 141.539 131.219,141.829 128.675,141.960 127.638 C 142.090 126.602,142.309 124.793,142.447 123.618 C 142.918 119.593,143.798 112.285,144.234 108.794 C 144.363 107.758,144.639 105.440,144.847 103.643 C 146.198 91.977,146.500 90.481,146.818 93.907 C 147.047 96.371,147.862 104.202,148.499 110.050 C 148.627 111.225,148.845 113.260,148.983 114.573 C 149.121 115.886,149.408 118.543,149.621 120.477 C 149.833 122.412,150.124 125.126,150.267 126.508 C 150.410 127.889,150.636 130.038,150.768 131.281 C 150.900 132.525,151.164 135.046,151.353 136.883 C 151.769 140.911,151.139 140.400,155.940 140.605 C 161.485 140.842,161.149 140.998,161.522 138.009 C 161.691 136.658,161.935 134.705,162.065 133.668 C 162.196 132.632,162.477 130.201,162.691 128.266 C 162.905 126.332,163.194 123.901,163.332 122.864 C 163.471 121.828,163.814 118.945,164.095 116.457 C 165.002 108.430,165.072 107.820,165.318 105.716 C 165.599 103.312,165.946 100.397,166.478 95.980 C 166.686 94.253,166.964 91.906,167.097 90.766 C 167.372 88.390,167.655 85.970,168.221 81.156 C 169.009 74.445,169.018 74.326,168.723 74.213 C 168.569 74.154,166.924 74.137,165.068 74.176 L 161.694 74.246 161.529 75.377 C 161.438 75.999,161.227 77.921,161.060 79.648 C 160.894 81.376,160.652 83.807,160.522 85.050 C 159.911 90.909,159.798 91.992,159.561 94.221 C 159.277 96.896,158.631 103.226,158.292 106.658 C 158.006 109.562,157.647 113.017,157.159 117.588 C 156.945 119.592,156.700 122.054,156.614 123.061 C 156.280 126.992,156.091 126.032,154.648 113.065 C 154.441 111.200,154.154 108.656,154.011 107.412 C 153.868 106.168,153.643 104.190,153.512 103.015 C 153.381 101.840,153.159 99.918,153.018 98.744 C 152.877 97.569,152.646 95.477,152.504 94.095 C 152.222 91.355,151.902 88.428,151.542 85.302 C 151.415 84.196,151.114 81.482,150.873 79.271 C 150.254 73.590,150.716 74.121,146.391 74.121 L 142.770 74.121 142.500 75.691 C 142.351 76.555,142.055 78.844,141.841 80.779 C 141.627 82.714,141.344 85.088,141.212 86.055 C 141.080 87.023,140.906 88.323,140.824 88.945 C 140.743 89.567,140.565 90.923,140.428 91.960 C 140.292 92.996,140.012 95.201,139.807 96.859 C 139.601 98.518,139.323 100.751,139.189 101.822 C 139.055 102.893,138.836 104.645,138.703 105.716 C 138.569 106.787,138.169 109.925,137.812 112.688 C 136.773 120.736,136.693 121.392,136.520 123.204 C 136.275 125.767,135.971 124.778,135.550 120.046 C 135.350 117.796,135.067 114.598,134.921 112.940 C 134.775 111.281,134.546 108.737,134.412 107.286 C 134.279 105.835,134.000 102.613,133.793 100.126 C 133.352 94.842,132.991 90.621,132.662 86.935 C 132.532 85.484,132.300 82.827,132.144 81.030 C 131.989 79.234,131.788 76.972,131.697 76.005 L 131.533 74.246 128.001 74.177 C 126.058 74.139,124.389 74.187,124.292 74.284 M108.461 81.046 C 111.195 81.594,111.558 83.081,111.558 93.745 L 111.558 102.774 106.470 102.706 L 101.382 102.638 101.307 94.472 C 101.188 81.481,102.098 79.773,108.461 81.046 M237.228 81.436 C 239.535 82.593,239.733 83.628,239.645 94.095 L 239.573 102.638 234.548 102.638 L 229.523 102.638 229.448 94.221 C 229.358 83.971,229.547 82.799,231.502 81.526 C 232.890 80.623,235.523 80.582,237.228 81.436 M314.070 81.451 C 315.242 82.093,315.985 83.290,316.313 85.064 C 316.597 86.599,316.699 101.667,316.430 102.366 C 316.298 102.710,315.606 102.764,311.280 102.764 L 306.281 102.764 306.281 93.521 C 306.281 83.266,306.346 82.841,308.098 81.565 C 309.418 80.603,312.418 80.546,314.070 81.451 " stroke="none" fill="#fafafa" fill-rule="evenodd"></path><path id="path4" d="M162.775 49.872 C 162.707 49.940,160.398 50.107,157.645 50.244 C 147.912 50.728,139.057 51.245,138.003 51.391 L 136.935 51.538 136.937 52.716 C 136.938 53.364,137.055 55.195,137.197 56.784 C 137.441 59.515,137.637 61.851,138.189 68.593 C 138.319 70.182,138.545 72.839,138.692 74.497 C 139.267 81.028,139.710 86.420,139.866 88.780 C 140.057 91.687,140.262 91.509,140.691 88.065 C 140.863 86.683,141.109 84.705,141.238 83.668 C 141.367 82.632,141.580 80.936,141.711 79.899 C 141.841 78.863,142.038 77.224,142.149 76.256 C 142.435 73.739,142.199 73.869,146.482 73.869 C 150.792 73.869,150.550 73.728,150.795 76.382 C 150.964 78.212,151.053 79.008,151.886 86.181 C 152.103 88.046,152.389 90.590,152.522 91.834 C 152.859 94.980,153.636 101.867,154.294 107.538 C 154.430 108.712,154.647 110.634,154.775 111.809 C 154.903 112.984,155.116 114.849,155.247 115.955 C 155.378 117.060,155.633 119.265,155.813 120.854 L 156.140 123.744 156.340 122.236 C 156.450 121.407,156.654 119.655,156.794 118.342 C 157.057 115.861,157.236 114.169,157.885 108.040 C 158.097 106.036,158.335 103.662,158.413 102.764 C 158.491 101.866,158.660 100.226,158.789 99.121 C 159.162 95.909,159.512 92.622,159.925 88.442 C 160.504 82.580,160.792 79.952,161.062 78.073 C 161.196 77.138,161.307 75.945,161.307 75.422 C 161.307 74.400,161.657 73.869,162.332 73.869 C 162.812 73.869,163.317 72.244,163.317 70.701 C 163.317 70.186,163.431 69.077,163.571 68.237 C 163.711 67.396,163.945 65.408,164.091 63.819 C 164.237 62.230,164.453 60.082,164.572 59.045 C 164.691 58.009,164.901 56.143,165.038 54.899 C 165.176 53.656,165.368 52.275,165.463 51.831 C 165.803 50.254,165.474 49.749,164.107 49.749 C 163.442 49.749,162.842 49.804,162.775 49.872 M145.997 96.231 C 145.816 97.820,145.572 99.912,145.454 100.879 C 144.970 104.865,144.736 106.833,144.347 110.176 C 144.122 112.111,143.839 114.485,143.717 115.452 C 143.595 116.420,143.388 118.248,143.257 119.515 C 143.126 120.783,142.962 121.913,142.892 122.028 C 142.764 122.237,143.084 126.753,143.841 135.427 C 144.064 137.984,144.360 141.376,144.498 142.965 C 145.629 155.967,146.106 160.776,146.373 161.872 L 146.541 162.563 149.527 162.563 C 151.169 162.563,152.520 162.478,152.528 162.374 C 152.585 161.697,153.057 157.872,153.265 156.407 C 153.401 155.440,153.627 153.744,153.766 152.638 C 153.905 151.533,154.132 149.724,154.271 148.618 C 154.410 147.513,154.642 145.534,154.787 144.221 C 154.931 142.908,155.072 141.665,155.100 141.457 C 155.140 141.163,154.764 141.053,153.395 140.955 L 151.639 140.829 151.436 139.824 C 151.325 139.271,151.130 137.802,151.003 136.558 C 150.876 135.314,150.659 133.279,150.521 132.035 C 150.276 129.818,149.654 123.826,149.231 119.598 C 149.113 118.423,148.904 116.445,148.767 115.201 C 148.329 111.239,147.440 102.656,146.987 98.007 C 146.514 93.153,146.376 92.906,145.997 96.231 " stroke="none" fill="#5f0504" fill-rule="evenodd"></path></g></svg>